<?xml version="1.0" encoding="utf-8" standalone="no"?>
<!DOCTYPE svg PUBLIC "-//W3C//DTD SVG 1.1//EN"
  "http://www.w3.org/Graphics/SVG/1.1/DTD/svg11.dtd">
<svg xmlns:xlink="http://www.w3.org/1999/xlink" width="333.87552pt" height="41.263634pt" viewBox="0 0 333.87552 41.263634" xmlns="http://www.w3.org/2000/svg" version="1.1">
 <metadata>
  <rdf:RDF xmlns:dc="http://purl.org/dc/elements/1.1/" xmlns:cc="http://creativecommons.org/ns#" xmlns:rdf="http://www.w3.org/1999/02/22-rdf-syntax-ns#">
   <cc:Work>
    <dc:type rdf:resource="http://purl.org/dc/dcmitype/StillImage"/>
    <dc:format>image/svg+xml</dc:format>
    <dc:creator>
     <cc:Agent>
      <dc:title>vae-family-theory-and-code</dc:title>
     </cc:Agent>
    </dc:creator>
   </cc:Work>
  </rdf:RDF>
 </metadata>
 <defs>
  <style type="text/css">*{stroke-linejoin: round; stroke-linecap: butt}</style>
 </defs>
 <g id="figure_1">
  <g id="patch_1">
   <path d="M 0 41.263634
L 333.87552 41.263634
L 333.87552 0
L 0 0
z
" style="fill: #ffffff"/>
  </g>
  <g id="text_1">
   <!-- $\mathcal{E}=\{e_1,\ldots,e_K\},\qquad e_k\in\mathbb{R}^D.$ -->
   <g style="fill: #111111" transform="translate(7.2 20.561484) scale(0.155 -0.155)">
    <defs>
     <path id="STIXNonUnicode-Italic-e231" d="M 3270 973
L 3373 858
Q 2893 346 2272 128
Q 1856 -26 1331 -26
Q 896 -26 576 169
Q 256 365 256 736
Q 256 1267 659 1651
Q 1062 2035 1619 2259
Q 1485 2323 1414 2368
Q 1344 2413 1257 2493
Q 1171 2573 1132 2688
Q 1094 2803 1094 2963
Q 1094 3309 1401 3629
Q 1709 3949 2112 4118
Q 2515 4288 2848 4288
Q 3296 4288 3565 4128
Q 3834 3968 3834 3654
Q 3834 3514 3718 3338
Q 3603 3162 3373 3162
Q 3238 3162 3132 3251
Q 3027 3341 3027 3475
Q 3027 3622 3123 3731
Q 3219 3840 3219 3859
Q 3219 3981 3148 4029
Q 3078 4077 2918 4077
Q 2432 4077 2038 3792
Q 1645 3507 1645 3155
Q 1645 2893 1881 2742
Q 2118 2592 2502 2592
L 2938 2592
L 2880 2349
Q 2605 2349 2275 2243
Q 1946 2138 1645 1958
Q 1344 1779 1142 1494
Q 941 1210 941 896
Q 941 614 1155 467
Q 1370 320 1741 320
Q 2131 320 2576 515
Q 3021 710 3270 973
z
" transform="scale(0.015625)"/>
     <path id="DejaVuSans-3d" d="M 678 2906
L 4684 2906
L 4684 2381
L 678 2381
L 678 2906
z
M 678 1631
L 4684 1631
L 4684 1100
L 678 1100
L 678 1631
z
" transform="scale(0.015625)"/>
     <path id="DejaVuSans-7b" d="M 3272 -594
L 3272 -1044
L 3078 -1044
Q 2300 -1044 2036 -812
Q 1772 -581 1772 109
L 1772 856
Q 1772 1328 1603 1509
Q 1434 1691 991 1691
L 800 1691
L 800 2138
L 991 2138
Q 1438 2138 1605 2317
Q 1772 2497 1772 2963
L 1772 3713
Q 1772 4403 2036 4633
Q 2300 4863 3078 4863
L 3272 4863
L 3272 4416
L 3059 4416
Q 2619 4416 2484 4278
Q 2350 4141 2350 3700
L 2350 2925
Q 2350 2434 2208 2212
Q 2066 1991 1722 1913
Q 2069 1828 2209 1606
Q 2350 1384 2350 897
L 2350 122
Q 2350 -319 2484 -456
Q 2619 -594 3059 -594
L 3272 -594
z
" transform="scale(0.015625)"/>
     <path id="DejaVuSans-Oblique-65" d="M 3078 2063
Q 3088 2113 3092 2166
Q 3097 2219 3097 2272
Q 3097 2653 2873 2875
Q 2650 3097 2266 3097
Q 1838 3097 1509 2826
Q 1181 2556 1013 2059
L 3078 2063
z
M 3578 1613
L 903 1613
Q 884 1494 878 1425
Q 872 1356 872 1306
Q 872 872 1139 634
Q 1406 397 1894 397
Q 2269 397 2603 481
Q 2938 566 3225 728
L 3116 159
Q 2806 34 2476 -28
Q 2147 -91 1806 -91
Q 1078 -91 686 257
Q 294 606 294 1247
Q 294 1794 489 2264
Q 684 2734 1063 3103
Q 1306 3334 1642 3459
Q 1978 3584 2356 3584
Q 2950 3584 3301 3228
Q 3653 2872 3653 2272
Q 3653 2128 3634 1964
Q 3616 1800 3578 1613
z
" transform="scale(0.015625)"/>
     <path id="DejaVuSans-31" d="M 794 531
L 1825 531
L 1825 4091
L 703 3866
L 703 4441
L 1819 4666
L 2450 4666
L 2450 531
L 3481 531
L 3481 0
L 794 0
L 794 531
z
" transform="scale(0.015625)"/>
     <path id="DejaVuSans-2c" d="M 750 794
L 1409 794
L 1409 256
L 897 -744
L 494 -744
L 750 256
L 750 794
z
" transform="scale(0.015625)"/>
     <path id="DejaVuSans-2026" d="M 2869 794
L 3531 794
L 3531 0
L 2869 0
L 2869 794
z
M 4997 794
L 5663 794
L 5663 0
L 4997 0
L 4997 794
z
M 738 794
L 1403 794
L 1403 0
L 738 0
L 738 794
z
" transform="scale(0.015625)"/>
     <path id="DejaVuSans-Oblique-4b" d="M 1081 4666
L 1716 4666
L 1331 2700
L 3781 4666
L 4622 4666
L 1850 2438
L 3878 0
L 3109 0
L 1247 2272
L 806 0
L 172 0
L 1081 4666
z
" transform="scale(0.015625)"/>
     <path id="DejaVuSans-7d" d="M 800 -594
L 1019 -594
Q 1456 -594 1589 -459
Q 1722 -325 1722 122
L 1722 897
Q 1722 1384 1862 1606
Q 2003 1828 2350 1913
Q 2003 1991 1862 2212
Q 1722 2434 1722 2925
L 1722 3700
Q 1722 4144 1589 4280
Q 1456 4416 1019 4416
L 800 4416
L 800 4863
L 997 4863
Q 1775 4863 2036 4633
Q 2297 4403 2297 3713
L 2297 2963
Q 2297 2497 2465 2317
Q 2634 2138 3078 2138
L 3272 2138
L 3272 1691
L 3078 1691
Q 2634 1691 2465 1509
Q 2297 1328 2297 856
L 2297 109
Q 2297 -581 2036 -812
Q 1775 -1044 997 -1044
L 800 -1044
L 800 -594
z
" transform="scale(0.015625)"/>
     <path id="DejaVuSans-Oblique-6b" d="M 1172 4863
L 1747 4863
L 1197 2028
L 3169 3500
L 3916 3500
L 1716 1825
L 3322 0
L 2625 0
L 1131 1709
L 800 0
L 225 0
L 1172 4863
z
" transform="scale(0.015625)"/>
     <path id="DejaVuSans-2208" d="M 1072 1959
Q 1094 1728 1291 1353
Q 1522 919 1959 675
Q 2388 438 2850 434
L 5028 434
L 5028 -63
L 2850 -63
Q 2250 -63 1695 246
Q 1141 556 844 1106
Q 547 1656 547 2241
Q 547 2819 844 3369
Q 1141 3919 1695 4231
Q 2250 4544 2850 4544
L 5028 4544
L 5028 4047
L 2850 4047
Q 2388 4044 1959 3803
Q 1525 3556 1291 3125
Q 1091 2750 1063 2459
L 5028 2459
L 5028 1959
L 1072 1959
z
" transform="scale(0.015625)"/>
     <path id="STIXGeneral-Italic-211d" d="M 1229 4179
L 3360 4179
Q 3827 4179 4108 3894
Q 4390 3610 4390 3142
Q 4390 2554 4060 2186
Q 3731 1818 3149 1715
L 4026 0
L 2925 0
L 2125 1690
L 1549 1690
L 1094 0
L 109 0
L 1229 4179
z
M 3866 3821
L 3392 2022
Q 3770 2144 3962 2438
Q 4154 2733 4154 3136
Q 4154 3584 3866 3821
z
M 3142 1978
L 3648 3872
Q 3450 3942 3296 3942
L 2150 3942
L 1613 1926
L 2630 1926
Q 2957 1926 3142 1978
z
M 3629 237
L 2899 1696
Q 2829 1683 2682 1683
Q 2630 1683 2531 1686
Q 2432 1690 2387 1690
L 3072 237
L 3629 237
z
M 1907 3942
L 1408 3942
L 416 237
L 915 237
L 1907 3942
z
" transform="scale(0.015625)"/>
     <path id="DejaVuSans-Oblique-44" d="M 1081 4666
L 2438 4666
Q 3519 4666 4070 4208
Q 4622 3750 4622 2847
Q 4622 2250 4412 1698
Q 4203 1147 3834 769
Q 3463 381 2891 190
Q 2319 0 1538 0
L 172 0
L 1081 4666
z
M 1613 4147
L 909 519
L 1734 519
Q 2794 519 3375 1128
Q 3956 1738 3956 2847
Q 3956 3519 3581 3833
Q 3206 4147 2406 4147
L 1613 4147
z
" transform="scale(0.015625)"/>
     <path id="DejaVuSans-2e" d="M 684 794
L 1344 794
L 1344 0
L 684 0
L 684 794
z
" transform="scale(0.015625)"/>
    </defs>
    <use xlink:href="#STIXNonUnicode-Italic-e231" transform="translate(0 0.684375)"/>
    <use xlink:href="#DejaVuSans-3d" transform="translate(74.78241 0.684375)"/>
    <use xlink:href="#DejaVuSans-7b" transform="translate(178.053894 0.684375)"/>
    <use xlink:href="#DejaVuSans-Oblique-65" transform="translate(241.676941 0.684375)"/>
    <use xlink:href="#DejaVuSans-31" transform="translate(303.200378 -15.721875) scale(0.7)"/>
    <use xlink:href="#DejaVuSans-2c" transform="translate(350.470886 0.684375)"/>
    <use xlink:href="#DejaVuSans-2026" transform="translate(401.740417 0.684375)"/>
    <use xlink:href="#DejaVuSans-2c" transform="translate(501.740417 0.684375)"/>
    <use xlink:href="#DejaVuSans-Oblique-65" transform="translate(553.009949 0.684375)"/>
    <use xlink:href="#DejaVuSans-Oblique-4b" transform="translate(614.533386 -15.721875) scale(0.7)"/>
    <use xlink:href="#DejaVuSans-7d" transform="translate(663.171082 0.684375)"/>
    <use xlink:href="#DejaVuSans-2c" transform="translate(726.794128 0.684375)"/>
    <use xlink:href="#DejaVuSans-Oblique-65" transform="translate(972.887878 0.684375)"/>
    <use xlink:href="#DejaVuSans-Oblique-6b" transform="translate(1034.411316 -15.721875) scale(0.7)"/>
    <use xlink:href="#DejaVuSans-2208" transform="translate(1097.165222 0.684375)"/>
    <use xlink:href="#STIXGeneral-Italic-211d" transform="translate(1203.757019 0.684375)"/>
    <use xlink:href="#DejaVuSans-Oblique-44" transform="translate(1278.408459 38.965625) scale(0.7)"/>
    <use xlink:href="#DejaVuSans-2e" transform="translate(1335.044201 0.684375)"/>
   </g>
  </g>
  <g id="text_2">
   <!-- (18) -->
   <g style="fill: #111111" transform="translate(298.962551 31.256056) scale(0.135 -0.135)">
    <defs>
     <path id="DejaVuSans-28" d="M 1984 4856
Q 1566 4138 1362 3434
Q 1159 2731 1159 2009
Q 1159 1288 1364 580
Q 1569 -128 1984 -844
L 1484 -844
Q 1016 -109 783 600
Q 550 1309 550 2009
Q 550 2706 781 3412
Q 1013 4119 1484 4856
L 1984 4856
z
" transform="scale(0.015625)"/>
     <path id="DejaVuSans-38" d="M 2034 2216
Q 1584 2216 1326 1975
Q 1069 1734 1069 1313
Q 1069 891 1326 650
Q 1584 409 2034 409
Q 2484 409 2743 651
Q 3003 894 3003 1313
Q 3003 1734 2745 1975
Q 2488 2216 2034 2216
z
M 1403 2484
Q 997 2584 770 2862
Q 544 3141 544 3541
Q 544 4100 942 4425
Q 1341 4750 2034 4750
Q 2731 4750 3128 4425
Q 3525 4100 3525 3541
Q 3525 3141 3298 2862
Q 3072 2584 2669 2484
Q 3125 2378 3379 2068
Q 3634 1759 3634 1313
Q 3634 634 3220 271
Q 2806 -91 2034 -91
Q 1263 -91 848 271
Q 434 634 434 1313
Q 434 1759 690 2068
Q 947 2378 1403 2484
z
M 1172 3481
Q 1172 3119 1398 2916
Q 1625 2713 2034 2713
Q 2441 2713 2670 2916
Q 2900 3119 2900 3481
Q 2900 3844 2670 4047
Q 2441 4250 2034 4250
Q 1625 4250 1398 4047
Q 1172 3844 1172 3481
z
" transform="scale(0.015625)"/>
     <path id="DejaVuSans-29" d="M 513 4856
L 1013 4856
Q 1481 4119 1714 3412
Q 1947 2706 1947 2009
Q 1947 1309 1714 600
Q 1481 -109 1013 -844
L 513 -844
Q 928 -128 1133 580
Q 1338 1288 1338 2009
Q 1338 2731 1133 3434
Q 928 4138 513 4856
z
" transform="scale(0.015625)"/>
    </defs>
    <use xlink:href="#DejaVuSans-28"/>
    <use xlink:href="#DejaVuSans-31" x="39.013672"/>
    <use xlink:href="#DejaVuSans-38" x="102.636719"/>
    <use xlink:href="#DejaVuSans-29" x="166.259766"/>
   </g>
  </g>
 </g>
</svg>
