<?xml version="1.0" encoding="utf-8" standalone="no"?>
<!DOCTYPE svg PUBLIC "-//W3C//DTD SVG 1.1//EN"
  "http://www.w3.org/Graphics/SVG/1.1/DTD/svg11.dtd">
<svg xmlns:xlink="http://www.w3.org/1999/xlink" width="382.88448pt" height="44.363634pt" viewBox="0 0 382.88448 44.363634" xmlns="http://www.w3.org/2000/svg" version="1.1">
 <metadata>
  <rdf:RDF xmlns:dc="http://purl.org/dc/elements/1.1/" xmlns:cc="http://creativecommons.org/ns#" xmlns:rdf="http://www.w3.org/1999/02/22-rdf-syntax-ns#">
   <cc:Work>
    <dc:type rdf:resource="http://purl.org/dc/dcmitype/StillImage"/>
    <dc:format>image/svg+xml</dc:format>
    <dc:creator>
     <cc:Agent>
      <dc:title>vae-family-theory-and-code</dc:title>
     </cc:Agent>
    </dc:creator>
   </cc:Work>
  </rdf:RDF>
 </metadata>
 <defs>
  <style type="text/css">*{stroke-linejoin: round; stroke-linecap: butt}</style>
 </defs>
 <g id="figure_1">
  <g id="patch_1">
   <path d="M 0 44.363634
L 382.88448 44.363634
L 382.88448 0
L 0 0
z
" style="fill: #ffffff"/>
  </g>
  <g id="text_1">
   <!-- $\mathrm{sg}[u]=u,\qquad \frac{\partial\mathrm{sg}[u]}{\partial u}=0.$ -->
   <g style="fill: #111111" transform="translate(7.2 24.56) scale(0.155 -0.155)">
    <defs>
     <path id="DejaVuSans-73" d="M 2834 3397
L 2834 2853
Q 2591 2978 2328 3040
Q 2066 3103 1784 3103
Q 1356 3103 1142 2972
Q 928 2841 928 2578
Q 928 2378 1081 2264
Q 1234 2150 1697 2047
L 1894 2003
Q 2506 1872 2764 1633
Q 3022 1394 3022 966
Q 3022 478 2636 193
Q 2250 -91 1575 -91
Q 1294 -91 989 -36
Q 684 19 347 128
L 347 722
Q 666 556 975 473
Q 1284 391 1588 391
Q 1994 391 2212 530
Q 2431 669 2431 922
Q 2431 1156 2273 1281
Q 2116 1406 1581 1522
L 1381 1569
Q 847 1681 609 1914
Q 372 2147 372 2553
Q 372 3047 722 3315
Q 1072 3584 1716 3584
Q 2034 3584 2315 3537
Q 2597 3491 2834 3397
z
" transform="scale(0.015625)"/>
     <path id="DejaVuSans-67" d="M 2906 1791
Q 2906 2416 2648 2759
Q 2391 3103 1925 3103
Q 1463 3103 1205 2759
Q 947 2416 947 1791
Q 947 1169 1205 825
Q 1463 481 1925 481
Q 2391 481 2648 825
Q 2906 1169 2906 1791
z
M 3481 434
Q 3481 -459 3084 -895
Q 2688 -1331 1869 -1331
Q 1566 -1331 1297 -1286
Q 1028 -1241 775 -1147
L 775 -588
Q 1028 -725 1275 -790
Q 1522 -856 1778 -856
Q 2344 -856 2625 -561
Q 2906 -266 2906 331
L 2906 616
Q 2728 306 2450 153
Q 2172 0 1784 0
Q 1141 0 747 490
Q 353 981 353 1791
Q 353 2603 747 3093
Q 1141 3584 1784 3584
Q 2172 3584 2450 3431
Q 2728 3278 2906 2969
L 2906 3500
L 3481 3500
L 3481 434
z
" transform="scale(0.015625)"/>
     <path id="DejaVuSans-5b" d="M 550 4863
L 1875 4863
L 1875 4416
L 1125 4416
L 1125 -397
L 1875 -397
L 1875 -844
L 550 -844
L 550 4863
z
" transform="scale(0.015625)"/>
     <path id="DejaVuSans-Oblique-75" d="M 428 1388
L 838 3500
L 1416 3500
L 1006 1409
Q 975 1256 961 1147
Q 947 1038 947 966
Q 947 700 1109 554
Q 1272 409 1569 409
Q 2031 409 2368 721
Q 2706 1034 2809 1563
L 3194 3500
L 3769 3500
L 3091 0
L 2516 0
L 2631 550
Q 2388 244 2052 76
Q 1716 -91 1338 -91
Q 878 -91 622 161
Q 366 413 366 863
Q 366 956 381 1097
Q 397 1238 428 1388
z
" transform="scale(0.015625)"/>
     <path id="DejaVuSans-5d" d="M 1947 4863
L 1947 -844
L 622 -844
L 622 -397
L 1369 -397
L 1369 4416
L 622 4416
L 622 4863
L 1947 4863
z
" transform="scale(0.015625)"/>
     <path id="DejaVuSans-3d" d="M 678 2906
L 4684 2906
L 4684 2381
L 678 2381
L 678 2906
z
M 678 1631
L 4684 1631
L 4684 1100
L 678 1100
L 678 1631
z
" transform="scale(0.015625)"/>
     <path id="DejaVuSans-2c" d="M 750 794
L 1409 794
L 1409 256
L 897 -744
L 494 -744
L 750 256
L 750 794
z
" transform="scale(0.015625)"/>
     <path id="DejaVuSans-2202" d="M 1366 -91
Q 925 -91 638 175
Q 297 491 297 1063
Q 297 1656 597 2119
Q 906 2594 1463 2594
Q 1828 2594 2116 2366
Q 2284 2231 2400 2006
Q 2441 2259 2441 2547
Q 2441 2969 2341 3213
Q 2119 3753 1531 3753
Q 1309 3753 966 3616
L 966 4141
Q 1328 4238 1653 4238
Q 2491 4238 2847 3469
Q 3013 3106 3013 2566
Q 3013 2213 2934 1803
Q 2738 778 2228 291
Q 1828 -91 1366 -91
z
M 831 969
Q 831 656 969 488
Q 1116 309 1341 309
Q 1541 309 1700 450
Q 1925 644 2091 959
Q 2228 1219 2297 1497
Q 2019 2169 1538 2169
Q 1125 2169 944 1625
Q 831 1288 831 969
z
" transform="scale(0.015625)"/>
     <path id="DejaVuSans-30" d="M 2034 4250
Q 1547 4250 1301 3770
Q 1056 3291 1056 2328
Q 1056 1369 1301 889
Q 1547 409 2034 409
Q 2525 409 2770 889
Q 3016 1369 3016 2328
Q 3016 3291 2770 3770
Q 2525 4250 2034 4250
z
M 2034 4750
Q 2819 4750 3233 4129
Q 3647 3509 3647 2328
Q 3647 1150 3233 529
Q 2819 -91 2034 -91
Q 1250 -91 836 529
Q 422 1150 422 2328
Q 422 3509 836 4129
Q 1250 4750 2034 4750
z
" transform="scale(0.015625)"/>
     <path id="DejaVuSans-2e" d="M 684 794
L 1344 794
L 1344 0
L 684 0
L 684 794
z
" transform="scale(0.015625)"/>
    </defs>
    <use xlink:href="#DejaVuSans-73" transform="translate(0 0.45625)"/>
    <use xlink:href="#DejaVuSans-67" transform="translate(52.099609 0.45625)"/>
    <use xlink:href="#DejaVuSans-5b" transform="translate(115.576172 0.45625)"/>
    <use xlink:href="#DejaVuSans-Oblique-75" transform="translate(154.589844 0.45625)"/>
    <use xlink:href="#DejaVuSans-5d" transform="translate(217.96875 0.45625)"/>
    <use xlink:href="#DejaVuSans-3d" transform="translate(276.464844 0.45625)"/>
    <use xlink:href="#DejaVuSans-Oblique-75" transform="translate(379.736328 0.45625)"/>
    <use xlink:href="#DejaVuSans-2c" transform="translate(443.115234 0.45625)"/>
    <use xlink:href="#DejaVuSans-2202" transform="translate(689.208984 58.810938) scale(0.7)"/>
    <use xlink:href="#DejaVuSans-73" transform="translate(725.405273 58.810938) scale(0.7)"/>
    <use xlink:href="#DejaVuSans-67" transform="translate(761.875 58.810938) scale(0.7)"/>
    <use xlink:href="#DejaVuSans-5b" transform="translate(806.308594 58.810938) scale(0.7)"/>
    <use xlink:href="#DejaVuSans-Oblique-75" transform="translate(833.618164 58.810938) scale(0.7)"/>
    <use xlink:href="#DejaVuSans-5d" transform="translate(877.983398 58.810938) scale(0.7)"/>
    <use xlink:href="#DejaVuSans-2202" transform="translate(757.208984 -33.35) scale(0.7)"/>
    <use xlink:href="#DejaVuSans-Oblique-75" transform="translate(793.405273 -33.35) scale(0.7)"/>
    <use xlink:href="#DejaVuSans-3d" transform="translate(937.275391 0.45625)"/>
    <use xlink:href="#DejaVuSans-30" transform="translate(1040.546875 0.45625)"/>
    <use xlink:href="#DejaVuSans-2e" transform="translate(1104.169922 0.45625)"/>
    <path d="M 689.208984 19.253125
L 689.208984 25.503125
L 905.292969 25.503125
L 905.292969 19.253125
L 689.208984 19.253125
z
"/>
   </g>
  </g>
  <g id="text_2">
   <!-- (23) -->
   <g style="fill: #111111" transform="translate(347.971511 34.356056) scale(0.135 -0.135)">
    <defs>
     <path id="DejaVuSans-28" d="M 1984 4856
Q 1566 4138 1362 3434
Q 1159 2731 1159 2009
Q 1159 1288 1364 580
Q 1569 -128 1984 -844
L 1484 -844
Q 1016 -109 783 600
Q 550 1309 550 2009
Q 550 2706 781 3412
Q 1013 4119 1484 4856
L 1984 4856
z
" transform="scale(0.015625)"/>
     <path id="DejaVuSans-32" d="M 1228 531
L 3431 531
L 3431 0
L 469 0
L 469 531
Q 828 903 1448 1529
Q 2069 2156 2228 2338
Q 2531 2678 2651 2914
Q 2772 3150 2772 3378
Q 2772 3750 2511 3984
Q 2250 4219 1831 4219
Q 1534 4219 1204 4116
Q 875 4013 500 3803
L 500 4441
Q 881 4594 1212 4672
Q 1544 4750 1819 4750
Q 2544 4750 2975 4387
Q 3406 4025 3406 3419
Q 3406 3131 3298 2873
Q 3191 2616 2906 2266
Q 2828 2175 2409 1742
Q 1991 1309 1228 531
z
" transform="scale(0.015625)"/>
     <path id="DejaVuSans-33" d="M 2597 2516
Q 3050 2419 3304 2112
Q 3559 1806 3559 1356
Q 3559 666 3084 287
Q 2609 -91 1734 -91
Q 1441 -91 1130 -33
Q 819 25 488 141
L 488 750
Q 750 597 1062 519
Q 1375 441 1716 441
Q 2309 441 2620 675
Q 2931 909 2931 1356
Q 2931 1769 2642 2001
Q 2353 2234 1838 2234
L 1294 2234
L 1294 2753
L 1863 2753
Q 2328 2753 2575 2939
Q 2822 3125 2822 3475
Q 2822 3834 2567 4026
Q 2313 4219 1838 4219
Q 1578 4219 1281 4162
Q 984 4106 628 3988
L 628 4550
Q 988 4650 1302 4700
Q 1616 4750 1894 4750
Q 2613 4750 3031 4423
Q 3450 4097 3450 3541
Q 3450 3153 3228 2886
Q 3006 2619 2597 2516
z
" transform="scale(0.015625)"/>
     <path id="DejaVuSans-29" d="M 513 4856
L 1013 4856
Q 1481 4119 1714 3412
Q 1947 2706 1947 2009
Q 1947 1309 1714 600
Q 1481 -109 1013 -844
L 513 -844
Q 928 -128 1133 580
Q 1338 1288 1338 2009
Q 1338 2731 1133 3434
Q 928 4138 513 4856
z
" transform="scale(0.015625)"/>
    </defs>
    <use xlink:href="#DejaVuSans-28"/>
    <use xlink:href="#DejaVuSans-32" x="39.013672"/>
    <use xlink:href="#DejaVuSans-33" x="102.636719"/>
    <use xlink:href="#DejaVuSans-29" x="166.259766"/>
   </g>
  </g>
 </g>
</svg>
