<?xml version="1.0" encoding="utf-8" standalone="no"?>
<!DOCTYPE svg PUBLIC "-//W3C//DTD SVG 1.1//EN"
  "http://www.w3.org/Graphics/SVG/1.1/DTD/svg11.dtd">
<svg xmlns:xlink="http://www.w3.org/1999/xlink" width="315.792pt" height="40.721134pt" viewBox="0 0 315.792 40.721134" xmlns="http://www.w3.org/2000/svg" version="1.1">
 <metadata>
  <rdf:RDF xmlns:dc="http://purl.org/dc/elements/1.1/" xmlns:cc="http://creativecommons.org/ns#" xmlns:rdf="http://www.w3.org/1999/02/22-rdf-syntax-ns#">
   <cc:Work>
    <dc:type rdf:resource="http://purl.org/dc/dcmitype/StillImage"/>
    <dc:format>image/svg+xml</dc:format>
    <dc:creator>
     <cc:Agent>
      <dc:title>vae-family-theory-and-code</dc:title>
     </cc:Agent>
    </dc:creator>
   </cc:Work>
  </rdf:RDF>
 </metadata>
 <defs>
  <style type="text/css">*{stroke-linejoin: round; stroke-linecap: butt}</style>
 </defs>
 <g id="figure_1">
  <g id="patch_1">
   <path d="M 0 40.721134
L 315.792 40.721134
L 315.792 0
L 0 0
z
" style="fill: #ffffff"/>
  </g>
  <g id="text_1">
   <!-- $p_\theta(x,z)=p(z)p_\theta(x\mid z).$ -->
   <g style="fill: #111111" transform="translate(7.2 19.29) scale(0.155 -0.155)">
    <defs>
     <path id="DejaVuSans-Oblique-70" d="M 3175 2156
Q 3175 2616 2975 2859
Q 2775 3103 2400 3103
Q 2144 3103 1911 2972
Q 1678 2841 1497 2591
Q 1319 2344 1212 1994
Q 1106 1644 1106 1300
Q 1106 863 1306 627
Q 1506 391 1875 391
Q 2147 391 2380 519
Q 2613 647 2778 891
Q 2956 1147 3065 1494
Q 3175 1841 3175 2156
z
M 1394 2969
Q 1625 3272 1939 3428
Q 2253 3584 2638 3584
Q 3175 3584 3472 3232
Q 3769 2881 3769 2247
Q 3769 1728 3584 1258
Q 3400 788 3053 416
Q 2822 169 2531 39
Q 2241 -91 1919 -91
Q 1547 -91 1294 64
Q 1041 219 916 525
L 556 -1331
L -19 -1331
L 922 3500
L 1497 3500
L 1394 2969
z
" transform="scale(0.015625)"/>
     <path id="DejaVuSans-Oblique-3b8" d="M 2913 2219
L 925 2219
Q 791 1284 928 888
Q 1100 400 1566 400
Q 2034 400 2391 891
Q 2703 1322 2913 2219
z
M 3009 2750
Q 3094 3638 2984 3950
Q 2813 4444 2353 4444
Q 1875 4444 1525 3956
Q 1250 3563 1034 2750
L 3009 2750
z
M 2444 4913
Q 3194 4913 3494 4250
Q 3794 3591 3566 2422
Q 3341 1256 2781 594
Q 2225 -72 1475 -72
Q 722 -72 425 594
Q 128 1256 353 2422
Q 581 3591 1134 4250
Q 1691 4913 2444 4913
z
" transform="scale(0.015625)"/>
     <path id="DejaVuSans-28" d="M 1984 4856
Q 1566 4138 1362 3434
Q 1159 2731 1159 2009
Q 1159 1288 1364 580
Q 1569 -128 1984 -844
L 1484 -844
Q 1016 -109 783 600
Q 550 1309 550 2009
Q 550 2706 781 3412
Q 1013 4119 1484 4856
L 1984 4856
z
" transform="scale(0.015625)"/>
     <path id="DejaVuSans-Oblique-78" d="M 3841 3500
L 2234 1784
L 3219 0
L 2559 0
L 1819 1388
L 531 0
L -166 0
L 1556 1844
L 641 3500
L 1300 3500
L 1972 2234
L 3144 3500
L 3841 3500
z
" transform="scale(0.015625)"/>
     <path id="DejaVuSans-2c" d="M 750 794
L 1409 794
L 1409 256
L 897 -744
L 494 -744
L 750 256
L 750 794
z
" transform="scale(0.015625)"/>
     <path id="DejaVuSans-Oblique-7a" d="M 744 3500
L 3475 3500
L 3372 2975
L 738 459
L 2913 459
L 2822 0
L -19 0
L 84 525
L 2719 3041
L 653 3041
L 744 3500
z
" transform="scale(0.015625)"/>
     <path id="DejaVuSans-29" d="M 513 4856
L 1013 4856
Q 1481 4119 1714 3412
Q 1947 2706 1947 2009
Q 1947 1309 1714 600
Q 1481 -109 1013 -844
L 513 -844
Q 928 -128 1133 580
Q 1338 1288 1338 2009
Q 1338 2731 1133 3434
Q 928 4138 513 4856
z
" transform="scale(0.015625)"/>
     <path id="DejaVuSans-3d" d="M 678 2906
L 4684 2906
L 4684 2381
L 678 2381
L 678 2906
z
M 678 1631
L 4684 1631
L 4684 1100
L 678 1100
L 678 1631
z
" transform="scale(0.015625)"/>
     <path id="DejaVuSans-2223" d="M 1350 4934
L 1850 4934
L 1850 -1369
L 1350 -1369
L 1350 4934
z
" transform="scale(0.015625)"/>
     <path id="DejaVuSans-2e" d="M 684 794
L 1344 794
L 1344 0
L 684 0
L 684 794
z
" transform="scale(0.015625)"/>
    </defs>
    <use xlink:href="#DejaVuSans-Oblique-70" transform="translate(0 0.90625)"/>
    <use xlink:href="#DejaVuSans-Oblique-3b8" transform="translate(63.476562 -15.5) scale(0.7)"/>
    <use xlink:href="#DejaVuSans-28" transform="translate(109.038086 0.90625)"/>
    <use xlink:href="#DejaVuSans-Oblique-78" transform="translate(148.051758 0.90625)"/>
    <use xlink:href="#DejaVuSans-2c" transform="translate(207.231445 0.90625)"/>
    <use xlink:href="#DejaVuSans-Oblique-7a" transform="translate(258.500977 0.90625)"/>
    <use xlink:href="#DejaVuSans-29" transform="translate(310.991211 0.90625)"/>
    <use xlink:href="#DejaVuSans-3d" transform="translate(369.487305 0.90625)"/>
    <use xlink:href="#DejaVuSans-Oblique-70" transform="translate(472.758789 0.90625)"/>
    <use xlink:href="#DejaVuSans-28" transform="translate(536.235352 0.90625)"/>
    <use xlink:href="#DejaVuSans-Oblique-7a" transform="translate(575.249023 0.90625)"/>
    <use xlink:href="#DejaVuSans-29" transform="translate(627.739258 0.90625)"/>
    <use xlink:href="#DejaVuSans-Oblique-70" transform="translate(666.75293 0.90625)"/>
    <use xlink:href="#DejaVuSans-Oblique-3b8" transform="translate(730.229492 -15.5) scale(0.7)"/>
    <use xlink:href="#DejaVuSans-28" transform="translate(775.791016 0.90625)"/>
    <use xlink:href="#DejaVuSans-Oblique-78" transform="translate(814.804688 0.90625)"/>
    <use xlink:href="#DejaVuSans-2223" transform="translate(893.466797 0.90625)"/>
    <use xlink:href="#DejaVuSans-Oblique-7a" transform="translate(962.949219 0.90625)"/>
    <use xlink:href="#DejaVuSans-29" transform="translate(1015.439453 0.90625)"/>
    <use xlink:href="#DejaVuSans-2e" transform="translate(1054.453125 0.90625)"/>
   </g>
  </g>
  <g id="text_2">
   <!-- (1) -->
   <g style="fill: #111111" transform="translate(289.468406 30.713556) scale(0.135 -0.135)">
    <defs>
     <path id="DejaVuSans-31" d="M 794 531
L 1825 531
L 1825 4091
L 703 3866
L 703 4441
L 1819 4666
L 2450 4666
L 2450 531
L 3481 531
L 3481 0
L 794 0
L 794 531
z
" transform="scale(0.015625)"/>
    </defs>
    <use xlink:href="#DejaVuSans-28"/>
    <use xlink:href="#DejaVuSans-31" x="39.013672"/>
    <use xlink:href="#DejaVuSans-29" x="102.636719"/>
   </g>
  </g>
 </g>
</svg>
