<?xml version="1.0" encoding="utf-8" standalone="no"?>
<!DOCTYPE svg PUBLIC "-//W3C//DTD SVG 1.1//EN"
  "http://www.w3.org/Graphics/SVG/1.1/DTD/svg11.dtd">
<svg xmlns:xlink="http://www.w3.org/1999/xlink" width="409.61664pt" height="48.626134pt" viewBox="0 0 409.61664 48.626134" xmlns="http://www.w3.org/2000/svg" version="1.1">
 <metadata>
  <rdf:RDF xmlns:dc="http://purl.org/dc/elements/1.1/" xmlns:cc="http://creativecommons.org/ns#" xmlns:rdf="http://www.w3.org/1999/02/22-rdf-syntax-ns#">
   <cc:Work>
    <dc:type rdf:resource="http://purl.org/dc/dcmitype/StillImage"/>
    <dc:format>image/svg+xml</dc:format>
    <dc:creator>
     <cc:Agent>
      <dc:title>vae-family-theory-and-code</dc:title>
     </cc:Agent>
    </dc:creator>
   </cc:Work>
  </rdf:RDF>
 </metadata>
 <defs>
  <style type="text/css">*{stroke-linejoin: round; stroke-linecap: butt}</style>
 </defs>
 <g id="figure_1">
  <g id="patch_1">
   <path d="M 0 48.626134
L 409.61664 48.626134
L 409.61664 0
L 0 0
z
" style="fill: #ffffff"/>
  </g>
  <g id="text_1">
   <!-- $-\log p_\theta(x\mid z) =-\sum_i[x_i\log\hat x_i+(1-x_i)\log(1-\hat x_i)].$ -->
   <g style="fill: #111111" transform="translate(7.2 23.01) scale(0.155 -0.155)">
    <defs>
     <path id="DejaVuSans-2212" d="M 678 2272
L 4684 2272
L 4684 1741
L 678 1741
L 678 2272
z
" transform="scale(0.015625)"/>
     <path id="DejaVuSans-6c" d="M 603 4863
L 1178 4863
L 1178 0
L 603 0
L 603 4863
z
" transform="scale(0.015625)"/>
     <path id="DejaVuSans-6f" d="M 1959 3097
Q 1497 3097 1228 2736
Q 959 2375 959 1747
Q 959 1119 1226 758
Q 1494 397 1959 397
Q 2419 397 2687 759
Q 2956 1122 2956 1747
Q 2956 2369 2687 2733
Q 2419 3097 1959 3097
z
M 1959 3584
Q 2709 3584 3137 3096
Q 3566 2609 3566 1747
Q 3566 888 3137 398
Q 2709 -91 1959 -91
Q 1206 -91 779 398
Q 353 888 353 1747
Q 353 2609 779 3096
Q 1206 3584 1959 3584
z
" transform="scale(0.015625)"/>
     <path id="DejaVuSans-67" d="M 2906 1791
Q 2906 2416 2648 2759
Q 2391 3103 1925 3103
Q 1463 3103 1205 2759
Q 947 2416 947 1791
Q 947 1169 1205 825
Q 1463 481 1925 481
Q 2391 481 2648 825
Q 2906 1169 2906 1791
z
M 3481 434
Q 3481 -459 3084 -895
Q 2688 -1331 1869 -1331
Q 1566 -1331 1297 -1286
Q 1028 -1241 775 -1147
L 775 -588
Q 1028 -725 1275 -790
Q 1522 -856 1778 -856
Q 2344 -856 2625 -561
Q 2906 -266 2906 331
L 2906 616
Q 2728 306 2450 153
Q 2172 0 1784 0
Q 1141 0 747 490
Q 353 981 353 1791
Q 353 2603 747 3093
Q 1141 3584 1784 3584
Q 2172 3584 2450 3431
Q 2728 3278 2906 2969
L 2906 3500
L 3481 3500
L 3481 434
z
" transform="scale(0.015625)"/>
     <path id="DejaVuSans-Oblique-70" d="M 3175 2156
Q 3175 2616 2975 2859
Q 2775 3103 2400 3103
Q 2144 3103 1911 2972
Q 1678 2841 1497 2591
Q 1319 2344 1212 1994
Q 1106 1644 1106 1300
Q 1106 863 1306 627
Q 1506 391 1875 391
Q 2147 391 2380 519
Q 2613 647 2778 891
Q 2956 1147 3065 1494
Q 3175 1841 3175 2156
z
M 1394 2969
Q 1625 3272 1939 3428
Q 2253 3584 2638 3584
Q 3175 3584 3472 3232
Q 3769 2881 3769 2247
Q 3769 1728 3584 1258
Q 3400 788 3053 416
Q 2822 169 2531 39
Q 2241 -91 1919 -91
Q 1547 -91 1294 64
Q 1041 219 916 525
L 556 -1331
L -19 -1331
L 922 3500
L 1497 3500
L 1394 2969
z
" transform="scale(0.015625)"/>
     <path id="DejaVuSans-Oblique-3b8" d="M 2913 2219
L 925 2219
Q 791 1284 928 888
Q 1100 400 1566 400
Q 2034 400 2391 891
Q 2703 1322 2913 2219
z
M 3009 2750
Q 3094 3638 2984 3950
Q 2813 4444 2353 4444
Q 1875 4444 1525 3956
Q 1250 3563 1034 2750
L 3009 2750
z
M 2444 4913
Q 3194 4913 3494 4250
Q 3794 3591 3566 2422
Q 3341 1256 2781 594
Q 2225 -72 1475 -72
Q 722 -72 425 594
Q 128 1256 353 2422
Q 581 3591 1134 4250
Q 1691 4913 2444 4913
z
" transform="scale(0.015625)"/>
     <path id="DejaVuSans-28" d="M 1984 4856
Q 1566 4138 1362 3434
Q 1159 2731 1159 2009
Q 1159 1288 1364 580
Q 1569 -128 1984 -844
L 1484 -844
Q 1016 -109 783 600
Q 550 1309 550 2009
Q 550 2706 781 3412
Q 1013 4119 1484 4856
L 1984 4856
z
" transform="scale(0.015625)"/>
     <path id="DejaVuSans-Oblique-78" d="M 3841 3500
L 2234 1784
L 3219 0
L 2559 0
L 1819 1388
L 531 0
L -166 0
L 1556 1844
L 641 3500
L 1300 3500
L 1972 2234
L 3144 3500
L 3841 3500
z
" transform="scale(0.015625)"/>
     <path id="DejaVuSans-2223" d="M 1350 4934
L 1850 4934
L 1850 -1369
L 1350 -1369
L 1350 4934
z
" transform="scale(0.015625)"/>
     <path id="DejaVuSans-Oblique-7a" d="M 744 3500
L 3475 3500
L 3372 2975
L 738 459
L 2913 459
L 2822 0
L -19 0
L 84 525
L 2719 3041
L 653 3041
L 744 3500
z
" transform="scale(0.015625)"/>
     <path id="DejaVuSans-29" d="M 513 4856
L 1013 4856
Q 1481 4119 1714 3412
Q 1947 2706 1947 2009
Q 1947 1309 1714 600
Q 1481 -109 1013 -844
L 513 -844
Q 928 -128 1133 580
Q 1338 1288 1338 2009
Q 1338 2731 1133 3434
Q 928 4138 513 4856
z
" transform="scale(0.015625)"/>
     <path id="DejaVuSans-3d" d="M 678 2906
L 4684 2906
L 4684 2381
L 678 2381
L 678 2906
z
M 678 1631
L 4684 1631
L 4684 1100
L 678 1100
L 678 1631
z
" transform="scale(0.015625)"/>
     <path id="DejaVuSansDisplay-2211" d="M 244 6509
L 5803 6509
L 5803 5656
L 1566 5656
L 4534 2488
L 1469 -888
L 5919 -888
L 5919 -1738
L 109 -1738
L 109 -1078
L 3316 2463
L 244 5728
L 244 6509
z
" transform="scale(0.015625)"/>
     <path id="DejaVuSans-Oblique-69" d="M 1172 4863
L 1747 4863
L 1606 4134
L 1031 4134
L 1172 4863
z
M 909 3500
L 1484 3500
L 800 0
L 225 0
L 909 3500
z
" transform="scale(0.015625)"/>
     <path id="DejaVuSans-5b" d="M 550 4863
L 1875 4863
L 1875 4416
L 1125 4416
L 1125 -397
L 1875 -397
L 1875 -844
L 550 -844
L 550 4863
z
" transform="scale(0.015625)"/>
     <path id="DejaVuSans-302" d="M -1831 5119
L -1369 5119
L -603 3944
L -1038 3944
L -1600 4709
L -2163 3944
L -2597 3944
L -1831 5119
z
M -1600 3584
L -1600 3584
z
" transform="scale(0.015625)"/>
     <path id="DejaVuSans-2b" d="M 2944 4013
L 2944 2272
L 4684 2272
L 4684 1741
L 2944 1741
L 2944 0
L 2419 0
L 2419 1741
L 678 1741
L 678 2272
L 2419 2272
L 2419 4013
L 2944 4013
z
" transform="scale(0.015625)"/>
     <path id="DejaVuSans-31" d="M 794 531
L 1825 531
L 1825 4091
L 703 3866
L 703 4441
L 1819 4666
L 2450 4666
L 2450 531
L 3481 531
L 3481 0
L 794 0
L 794 531
z
" transform="scale(0.015625)"/>
     <path id="DejaVuSans-5d" d="M 1947 4863
L 1947 -844
L 622 -844
L 622 -397
L 1369 -397
L 1369 4416
L 622 4416
L 622 4863
L 1947 4863
z
" transform="scale(0.015625)"/>
     <path id="DejaVuSans-2e" d="M 684 794
L 1344 794
L 1344 0
L 684 0
L 684 794
z
" transform="scale(0.015625)"/>
    </defs>
    <use xlink:href="#DejaVuSans-2212" transform="translate(0 0.296875)"/>
    <use xlink:href="#DejaVuSans-6c" transform="translate(83.789062 0.296875)"/>
    <use xlink:href="#DejaVuSans-6f" transform="translate(111.572266 0.296875)"/>
    <use xlink:href="#DejaVuSans-67" transform="translate(172.753906 0.296875)"/>
    <use xlink:href="#DejaVuSans-Oblique-70" transform="translate(252.466145 0.296875)"/>
    <use xlink:href="#DejaVuSans-Oblique-3b8" transform="translate(315.942708 -16.109375) scale(0.7)"/>
    <use xlink:href="#DejaVuSans-28" transform="translate(361.504231 0.296875)"/>
    <use xlink:href="#DejaVuSans-Oblique-78" transform="translate(400.517903 0.296875)"/>
    <use xlink:href="#DejaVuSans-2223" transform="translate(479.180012 0.296875)"/>
    <use xlink:href="#DejaVuSans-Oblique-7a" transform="translate(548.662434 0.296875)"/>
    <use xlink:href="#DejaVuSans-29" transform="translate(601.152668 0.296875)"/>
    <use xlink:href="#DejaVuSans-3d" transform="translate(659.648762 0.296875)"/>
    <use xlink:href="#DejaVuSans-2212" transform="translate(782.402668 0.296875)"/>
    <use xlink:href="#DejaVuSansDisplay-2211" transform="translate(885.674153 0.296875)"/>
    <use xlink:href="#DejaVuSans-Oblique-69" transform="translate(922.674153 -98.798438) scale(0.7)"/>
    <use xlink:href="#DejaVuSans-5b" transform="translate(976.439778 0.296875)"/>
    <use xlink:href="#DejaVuSans-Oblique-78" transform="translate(1015.45345 0.296875)"/>
    <use xlink:href="#DejaVuSans-Oblique-69" transform="translate(1074.633137 -16.109375) scale(0.7)"/>
    <use xlink:href="#DejaVuSans-6c" transform="translate(1096.815754 0.296875)"/>
    <use xlink:href="#DejaVuSans-6f" transform="translate(1124.598958 0.296875)"/>
    <use xlink:href="#DejaVuSans-67" transform="translate(1185.780598 0.296875)"/>
    <use xlink:href="#DejaVuSans-302" transform="translate(1329.719399 11.484375)"/>
    <use xlink:href="#DejaVuSans-Oblique-78" transform="translate(1265.492837 0.296875)"/>
    <use xlink:href="#DejaVuSans-Oblique-69" transform="translate(1329.043618 -16.109375) scale(0.7)"/>
    <use xlink:href="#DejaVuSans-2b" transform="translate(1370.708657 0.296875)"/>
    <use xlink:href="#DejaVuSans-28" transform="translate(1473.980142 0.296875)"/>
    <use xlink:href="#DejaVuSans-31" transform="translate(1512.993813 0.296875)"/>
    <use xlink:href="#DejaVuSans-2212" transform="translate(1596.099282 0.296875)"/>
    <use xlink:href="#DejaVuSans-Oblique-78" transform="translate(1699.370767 0.296875)"/>
    <use xlink:href="#DejaVuSans-Oblique-69" transform="translate(1758.550454 -16.109375) scale(0.7)"/>
    <use xlink:href="#DejaVuSans-29" transform="translate(1780.733071 0.296875)"/>
    <use xlink:href="#DejaVuSans-6c" transform="translate(1819.746743 0.296875)"/>
    <use xlink:href="#DejaVuSans-6f" transform="translate(1847.529946 0.296875)"/>
    <use xlink:href="#DejaVuSans-67" transform="translate(1908.711587 0.296875)"/>
    <use xlink:href="#DejaVuSans-28" transform="translate(1972.188149 0.296875)"/>
    <use xlink:href="#DejaVuSans-31" transform="translate(2011.201821 0.296875)"/>
    <use xlink:href="#DejaVuSans-2212" transform="translate(2094.30729 0.296875)"/>
    <use xlink:href="#DejaVuSans-302" transform="translate(2261.805337 11.484375)"/>
    <use xlink:href="#DejaVuSans-Oblique-78" transform="translate(2197.578774 0.296875)"/>
    <use xlink:href="#DejaVuSans-Oblique-69" transform="translate(2261.129556 -16.109375) scale(0.7)"/>
    <use xlink:href="#DejaVuSans-29" transform="translate(2283.312173 0.296875)"/>
    <use xlink:href="#DejaVuSans-5d" transform="translate(2322.325845 0.296875)"/>
    <use xlink:href="#DejaVuSans-2e" transform="translate(2361.339517 0.296875)"/>
   </g>
  </g>
  <g id="text_2">
   <!-- (26) -->
   <g style="fill: #111111" transform="translate(374.703671 38.618556) scale(0.135 -0.135)">
    <defs>
     <path id="DejaVuSans-32" d="M 1228 531
L 3431 531
L 3431 0
L 469 0
L 469 531
Q 828 903 1448 1529
Q 2069 2156 2228 2338
Q 2531 2678 2651 2914
Q 2772 3150 2772 3378
Q 2772 3750 2511 3984
Q 2250 4219 1831 4219
Q 1534 4219 1204 4116
Q 875 4013 500 3803
L 500 4441
Q 881 4594 1212 4672
Q 1544 4750 1819 4750
Q 2544 4750 2975 4387
Q 3406 4025 3406 3419
Q 3406 3131 3298 2873
Q 3191 2616 2906 2266
Q 2828 2175 2409 1742
Q 1991 1309 1228 531
z
" transform="scale(0.015625)"/>
     <path id="DejaVuSans-36" d="M 2113 2584
Q 1688 2584 1439 2293
Q 1191 2003 1191 1497
Q 1191 994 1439 701
Q 1688 409 2113 409
Q 2538 409 2786 701
Q 3034 994 3034 1497
Q 3034 2003 2786 2293
Q 2538 2584 2113 2584
z
M 3366 4563
L 3366 3988
Q 3128 4100 2886 4159
Q 2644 4219 2406 4219
Q 1781 4219 1451 3797
Q 1122 3375 1075 2522
Q 1259 2794 1537 2939
Q 1816 3084 2150 3084
Q 2853 3084 3261 2657
Q 3669 2231 3669 1497
Q 3669 778 3244 343
Q 2819 -91 2113 -91
Q 1303 -91 875 529
Q 447 1150 447 2328
Q 447 3434 972 4092
Q 1497 4750 2381 4750
Q 2619 4750 2861 4703
Q 3103 4656 3366 4563
z
" transform="scale(0.015625)"/>
    </defs>
    <use xlink:href="#DejaVuSans-28"/>
    <use xlink:href="#DejaVuSans-32" x="39.013672"/>
    <use xlink:href="#DejaVuSans-36" x="102.636719"/>
    <use xlink:href="#DejaVuSans-29" x="166.259766"/>
   </g>
  </g>
 </g>
</svg>
