<?xml version="1.0" encoding="utf-8" standalone="no"?>
<!DOCTYPE svg PUBLIC "-//W3C//DTD SVG 1.1//EN"
  "http://www.w3.org/Graphics/SVG/1.1/DTD/svg11.dtd">
<svg xmlns:xlink="http://www.w3.org/1999/xlink" width="529.91136pt" height="45.758634pt" viewBox="0 0 529.91136 45.758634" xmlns="http://www.w3.org/2000/svg" version="1.1">
 <metadata>
  <rdf:RDF xmlns:dc="http://purl.org/dc/elements/1.1/" xmlns:cc="http://creativecommons.org/ns#" xmlns:rdf="http://www.w3.org/1999/02/22-rdf-syntax-ns#">
   <cc:Work>
    <dc:type rdf:resource="http://purl.org/dc/dcmitype/StillImage"/>
    <dc:format>image/svg+xml</dc:format>
    <dc:creator>
     <cc:Agent>
      <dc:title>vae-family-theory-and-code</dc:title>
     </cc:Agent>
    </dc:creator>
   </cc:Work>
  </rdf:RDF>
 </metadata>
 <defs>
  <style type="text/css">*{stroke-linejoin: round; stroke-linecap: butt}</style>
 </defs>
 <g id="figure_1">
  <g id="patch_1">
   <path d="M 0 45.758634
L 529.91136 45.758634
L 529.91136 0
L 0 0
z
" style="fill: #ffffff"/>
  </g>
  <g id="text_1">
   <!-- $-\log p_\theta(x\mid z) =\frac{D}{2}\log(2\pi\sigma_x^2) +\frac{1}{2\sigma_x^2}\|x-f_\theta(z)\|_2^2.$ -->
   <g style="fill: #111111" transform="translate(7.2 21.925) scale(0.155 -0.155)">
    <defs>
     <path id="DejaVuSans-2212" d="M 678 2272
L 4684 2272
L 4684 1741
L 678 1741
L 678 2272
z
" transform="scale(0.015625)"/>
     <path id="DejaVuSans-6c" d="M 603 4863
L 1178 4863
L 1178 0
L 603 0
L 603 4863
z
" transform="scale(0.015625)"/>
     <path id="DejaVuSans-6f" d="M 1959 3097
Q 1497 3097 1228 2736
Q 959 2375 959 1747
Q 959 1119 1226 758
Q 1494 397 1959 397
Q 2419 397 2687 759
Q 2956 1122 2956 1747
Q 2956 2369 2687 2733
Q 2419 3097 1959 3097
z
M 1959 3584
Q 2709 3584 3137 3096
Q 3566 2609 3566 1747
Q 3566 888 3137 398
Q 2709 -91 1959 -91
Q 1206 -91 779 398
Q 353 888 353 1747
Q 353 2609 779 3096
Q 1206 3584 1959 3584
z
" transform="scale(0.015625)"/>
     <path id="DejaVuSans-67" d="M 2906 1791
Q 2906 2416 2648 2759
Q 2391 3103 1925 3103
Q 1463 3103 1205 2759
Q 947 2416 947 1791
Q 947 1169 1205 825
Q 1463 481 1925 481
Q 2391 481 2648 825
Q 2906 1169 2906 1791
z
M 3481 434
Q 3481 -459 3084 -895
Q 2688 -1331 1869 -1331
Q 1566 -1331 1297 -1286
Q 1028 -1241 775 -1147
L 775 -588
Q 1028 -725 1275 -790
Q 1522 -856 1778 -856
Q 2344 -856 2625 -561
Q 2906 -266 2906 331
L 2906 616
Q 2728 306 2450 153
Q 2172 0 1784 0
Q 1141 0 747 490
Q 353 981 353 1791
Q 353 2603 747 3093
Q 1141 3584 1784 3584
Q 2172 3584 2450 3431
Q 2728 3278 2906 2969
L 2906 3500
L 3481 3500
L 3481 434
z
" transform="scale(0.015625)"/>
     <path id="DejaVuSans-Oblique-70" d="M 3175 2156
Q 3175 2616 2975 2859
Q 2775 3103 2400 3103
Q 2144 3103 1911 2972
Q 1678 2841 1497 2591
Q 1319 2344 1212 1994
Q 1106 1644 1106 1300
Q 1106 863 1306 627
Q 1506 391 1875 391
Q 2147 391 2380 519
Q 2613 647 2778 891
Q 2956 1147 3065 1494
Q 3175 1841 3175 2156
z
M 1394 2969
Q 1625 3272 1939 3428
Q 2253 3584 2638 3584
Q 3175 3584 3472 3232
Q 3769 2881 3769 2247
Q 3769 1728 3584 1258
Q 3400 788 3053 416
Q 2822 169 2531 39
Q 2241 -91 1919 -91
Q 1547 -91 1294 64
Q 1041 219 916 525
L 556 -1331
L -19 -1331
L 922 3500
L 1497 3500
L 1394 2969
z
" transform="scale(0.015625)"/>
     <path id="DejaVuSans-Oblique-3b8" d="M 2913 2219
L 925 2219
Q 791 1284 928 888
Q 1100 400 1566 400
Q 2034 400 2391 891
Q 2703 1322 2913 2219
z
M 3009 2750
Q 3094 3638 2984 3950
Q 2813 4444 2353 4444
Q 1875 4444 1525 3956
Q 1250 3563 1034 2750
L 3009 2750
z
M 2444 4913
Q 3194 4913 3494 4250
Q 3794 3591 3566 2422
Q 3341 1256 2781 594
Q 2225 -72 1475 -72
Q 722 -72 425 594
Q 128 1256 353 2422
Q 581 3591 1134 4250
Q 1691 4913 2444 4913
z
" transform="scale(0.015625)"/>
     <path id="DejaVuSans-28" d="M 1984 4856
Q 1566 4138 1362 3434
Q 1159 2731 1159 2009
Q 1159 1288 1364 580
Q 1569 -128 1984 -844
L 1484 -844
Q 1016 -109 783 600
Q 550 1309 550 2009
Q 550 2706 781 3412
Q 1013 4119 1484 4856
L 1984 4856
z
" transform="scale(0.015625)"/>
     <path id="DejaVuSans-Oblique-78" d="M 3841 3500
L 2234 1784
L 3219 0
L 2559 0
L 1819 1388
L 531 0
L -166 0
L 1556 1844
L 641 3500
L 1300 3500
L 1972 2234
L 3144 3500
L 3841 3500
z
" transform="scale(0.015625)"/>
     <path id="DejaVuSans-2223" d="M 1350 4934
L 1850 4934
L 1850 -1369
L 1350 -1369
L 1350 4934
z
" transform="scale(0.015625)"/>
     <path id="DejaVuSans-Oblique-7a" d="M 744 3500
L 3475 3500
L 3372 2975
L 738 459
L 2913 459
L 2822 0
L -19 0
L 84 525
L 2719 3041
L 653 3041
L 744 3500
z
" transform="scale(0.015625)"/>
     <path id="DejaVuSans-29" d="M 513 4856
L 1013 4856
Q 1481 4119 1714 3412
Q 1947 2706 1947 2009
Q 1947 1309 1714 600
Q 1481 -109 1013 -844
L 513 -844
Q 928 -128 1133 580
Q 1338 1288 1338 2009
Q 1338 2731 1133 3434
Q 928 4138 513 4856
z
" transform="scale(0.015625)"/>
     <path id="DejaVuSans-3d" d="M 678 2906
L 4684 2906
L 4684 2381
L 678 2381
L 678 2906
z
M 678 1631
L 4684 1631
L 4684 1100
L 678 1100
L 678 1631
z
" transform="scale(0.015625)"/>
     <path id="DejaVuSans-Oblique-44" d="M 1081 4666
L 2438 4666
Q 3519 4666 4070 4208
Q 4622 3750 4622 2847
Q 4622 2250 4412 1698
Q 4203 1147 3834 769
Q 3463 381 2891 190
Q 2319 0 1538 0
L 172 0
L 1081 4666
z
M 1613 4147
L 909 519
L 1734 519
Q 2794 519 3375 1128
Q 3956 1738 3956 2847
Q 3956 3519 3581 3833
Q 3206 4147 2406 4147
L 1613 4147
z
" transform="scale(0.015625)"/>
     <path id="DejaVuSans-32" d="M 1228 531
L 3431 531
L 3431 0
L 469 0
L 469 531
Q 828 903 1448 1529
Q 2069 2156 2228 2338
Q 2531 2678 2651 2914
Q 2772 3150 2772 3378
Q 2772 3750 2511 3984
Q 2250 4219 1831 4219
Q 1534 4219 1204 4116
Q 875 4013 500 3803
L 500 4441
Q 881 4594 1212 4672
Q 1544 4750 1819 4750
Q 2544 4750 2975 4387
Q 3406 4025 3406 3419
Q 3406 3131 3298 2873
Q 3191 2616 2906 2266
Q 2828 2175 2409 1742
Q 1991 1309 1228 531
z
" transform="scale(0.015625)"/>
     <path id="DejaVuSans-Oblique-3c0" d="M 584 3500
L 3938 3500
L 3825 2925
L 3384 2925
L 2966 775
Q 2922 550 2981 450
Q 3038 353 3209 353
Q 3256 353 3325 363
Q 3397 369 3419 372
L 3338 -44
Q 3222 -84 3103 -103
Q 2981 -122 2866 -122
Q 2491 -122 2388 81
Q 2284 288 2391 838
L 2797 2925
L 1506 2925
L 938 0
L 350 0
L 919 2925
L 472 2925
L 584 3500
z
" transform="scale(0.015625)"/>
     <path id="DejaVuSans-Oblique-3c3" d="M 2219 3044
Q 1744 3044 1422 2700
Q 1081 2341 969 1747
Q 844 1119 1044 756
Q 1241 397 1706 397
Q 2166 397 2503 759
Q 2844 1122 2966 1747
Q 3075 2319 2881 2700
Q 2700 3044 2219 3044
z
M 2309 3503
L 4219 3500
L 4106 2925
L 3463 2925
Q 3706 2438 3575 1747
Q 3406 888 2884 400
Q 2359 -91 1609 -91
Q 856 -91 525 400
Q 194 888 363 1747
Q 528 2609 1050 3097
Q 1484 3503 2309 3503
z
" transform="scale(0.015625)"/>
     <path id="DejaVuSans-2b" d="M 2944 4013
L 2944 2272
L 4684 2272
L 4684 1741
L 2944 1741
L 2944 0
L 2419 0
L 2419 1741
L 678 1741
L 678 2272
L 2419 2272
L 2419 4013
L 2944 4013
z
" transform="scale(0.015625)"/>
     <path id="DejaVuSans-31" d="M 794 531
L 1825 531
L 1825 4091
L 703 3866
L 703 4441
L 1819 4666
L 2450 4666
L 2450 531
L 3481 531
L 3481 0
L 794 0
L 794 531
z
" transform="scale(0.015625)"/>
     <path id="DejaVuSans-2016" d="M 1344 4891
L 1344 -1509
L 813 -1509
L 813 4891
L 1344 4891
z
M 2375 4891
L 2375 -1509
L 1844 -1509
L 1844 4891
L 2375 4891
z
" transform="scale(0.015625)"/>
     <path id="DejaVuSans-Oblique-66" d="M 3059 4863
L 2969 4384
L 2419 4384
Q 2106 4384 1964 4261
Q 1822 4138 1753 3809
L 1691 3500
L 2638 3500
L 2553 3053
L 1606 3053
L 1013 0
L 434 0
L 1031 3053
L 481 3053
L 563 3500
L 1113 3500
L 1159 3744
Q 1278 4363 1576 4613
Q 1875 4863 2516 4863
L 3059 4863
z
" transform="scale(0.015625)"/>
     <path id="DejaVuSans-2e" d="M 684 794
L 1344 794
L 1344 0
L 684 0
L 684 794
z
" transform="scale(0.015625)"/>
    </defs>
    <use xlink:href="#DejaVuSans-2212" transform="translate(0 0.16875)"/>
    <use xlink:href="#DejaVuSans-6c" transform="translate(83.789062 0.16875)"/>
    <use xlink:href="#DejaVuSans-6f" transform="translate(111.572266 0.16875)"/>
    <use xlink:href="#DejaVuSans-67" transform="translate(172.753906 0.16875)"/>
    <use xlink:href="#DejaVuSans-Oblique-70" transform="translate(252.466145 0.16875)"/>
    <use xlink:href="#DejaVuSans-Oblique-3b8" transform="translate(315.942708 -16.2375) scale(0.7)"/>
    <use xlink:href="#DejaVuSans-28" transform="translate(361.504231 0.16875)"/>
    <use xlink:href="#DejaVuSans-Oblique-78" transform="translate(400.517903 0.16875)"/>
    <use xlink:href="#DejaVuSans-2223" transform="translate(479.180012 0.16875)"/>
    <use xlink:href="#DejaVuSans-Oblique-7a" transform="translate(548.662434 0.16875)"/>
    <use xlink:href="#DejaVuSans-29" transform="translate(601.152668 0.16875)"/>
    <use xlink:href="#DejaVuSans-3d" transform="translate(659.648762 0.16875)"/>
    <use xlink:href="#DejaVuSans-Oblique-44" transform="translate(762.920247 43.965625) scale(0.7)"/>
    <use xlink:href="#DejaVuSans-32" transform="translate(767.920247 -39.2375) scale(0.7)"/>
    <use xlink:href="#DejaVuSans-6c" transform="translate(829.321614 0.16875)"/>
    <use xlink:href="#DejaVuSans-6f" transform="translate(857.104817 0.16875)"/>
    <use xlink:href="#DejaVuSans-67" transform="translate(918.286458 0.16875)"/>
    <use xlink:href="#DejaVuSans-28" transform="translate(981.76302 0.16875)"/>
    <use xlink:href="#DejaVuSans-32" transform="translate(1020.776692 0.16875)"/>
    <use xlink:href="#DejaVuSans-Oblique-3c0" transform="translate(1084.399739 0.16875)"/>
    <use xlink:href="#DejaVuSans-Oblique-3c3" transform="translate(1144.604817 0.16875)"/>
    <use xlink:href="#DejaVuSans-32" transform="translate(1212.456431 38.45) scale(0.7)"/>
    <use xlink:href="#DejaVuSans-Oblique-78" transform="translate(1207.983723 -27.175) scale(0.7)"/>
    <use xlink:href="#DejaVuSans-29" transform="translate(1259.726939 0.16875)"/>
    <use xlink:href="#DejaVuSans-2b" transform="translate(1318.223033 0.16875)"/>
    <use xlink:href="#DejaVuSans-31" transform="translate(1461.494517 43.965625) scale(0.7)"/>
    <use xlink:href="#DejaVuSans-32" transform="translate(1421.494517 -50.448437) scale(0.7)"/>
    <use xlink:href="#DejaVuSans-Oblique-3c3" transform="translate(1466.03065 -50.448437) scale(0.7)"/>
    <use xlink:href="#DejaVuSans-32" transform="translate(1513.52678 -23.651562) scale(0.49)"/>
    <use xlink:href="#DejaVuSans-Oblique-78" transform="translate(1510.395885 -69.589062) scale(0.49)"/>
    <use xlink:href="#DejaVuSans-2016" transform="translate(1559.116136 0.16875)"/>
    <use xlink:href="#DejaVuSans-Oblique-78" transform="translate(1609.116136 0.16875)"/>
    <use xlink:href="#DejaVuSans-2212" transform="translate(1687.778245 0.16875)"/>
    <use xlink:href="#DejaVuSans-Oblique-66" transform="translate(1791.04973 0.16875)"/>
    <use xlink:href="#DejaVuSans-Oblique-3b8" transform="translate(1826.254808 -16.2375) scale(0.7)"/>
    <use xlink:href="#DejaVuSans-28" transform="translate(1871.816331 0.16875)"/>
    <use xlink:href="#DejaVuSans-Oblique-7a" transform="translate(1910.830003 0.16875)"/>
    <use xlink:href="#DejaVuSans-29" transform="translate(1963.320237 0.16875)"/>
    <use xlink:href="#DejaVuSans-2016" transform="translate(2002.333909 0.16875)"/>
    <use xlink:href="#DejaVuSans-32" transform="translate(2053.290941 38.45) scale(0.7)"/>
    <use xlink:href="#DejaVuSans-32" transform="translate(2053.290941 -27.175) scale(0.7)"/>
    <use xlink:href="#DejaVuSans-2e" transform="translate(2100.561448 0.16875)"/>
    <path d="M 762.920247 18.965625
L 762.920247 25.215625
L 816.821614 25.215625
L 816.821614 18.965625
L 762.920247 18.965625
z
"/>
    <path d="M 1421.494517 18.965625
L 1421.494517 25.215625
L 1546.616136 25.215625
L 1546.616136 18.965625
L 1421.494517 18.965625
z
"/>
   </g>
  </g>
  <g id="text_2">
   <!-- (28) -->
   <g style="fill: #111111" transform="translate(494.998391 35.751056) scale(0.135 -0.135)">
    <defs>
     <path id="DejaVuSans-38" d="M 2034 2216
Q 1584 2216 1326 1975
Q 1069 1734 1069 1313
Q 1069 891 1326 650
Q 1584 409 2034 409
Q 2484 409 2743 651
Q 3003 894 3003 1313
Q 3003 1734 2745 1975
Q 2488 2216 2034 2216
z
M 1403 2484
Q 997 2584 770 2862
Q 544 3141 544 3541
Q 544 4100 942 4425
Q 1341 4750 2034 4750
Q 2731 4750 3128 4425
Q 3525 4100 3525 3541
Q 3525 3141 3298 2862
Q 3072 2584 2669 2484
Q 3125 2378 3379 2068
Q 3634 1759 3634 1313
Q 3634 634 3220 271
Q 2806 -91 2034 -91
Q 1263 -91 848 271
Q 434 634 434 1313
Q 434 1759 690 2068
Q 947 2378 1403 2484
z
M 1172 3481
Q 1172 3119 1398 2916
Q 1625 2713 2034 2713
Q 2441 2713 2670 2916
Q 2900 3119 2900 3481
Q 2900 3844 2670 4047
Q 2441 4250 2034 4250
Q 1625 4250 1398 4047
Q 1172 3844 1172 3481
z
" transform="scale(0.015625)"/>
    </defs>
    <use xlink:href="#DejaVuSans-28"/>
    <use xlink:href="#DejaVuSans-32" x="39.013672"/>
    <use xlink:href="#DejaVuSans-38" x="102.636719"/>
    <use xlink:href="#DejaVuSans-29" x="166.259766"/>
   </g>
  </g>
 </g>
</svg>
